<mxfile host="app.diagrams.net" agent="Mozilla/5.0 (Windows NT 10.0; Win64; x64) AppleWebKit/537.36 (KHTML, like Gecko) Chrome/128.0.0.0 YaBrowser/24.10.0.0 Safari/537.36" scale="1" border="0" version="24.8.6" pages="2">
<diagram name="Общая диаграмма" id="G_nNjhbYJAKCIl4bXQrk">
<mxGraphModel dx="2804" dy="1260" grid="1" gridSize="10" guides="1" tooltips="1" connect="1" arrows="1" fold="1" page="1" pageScale="1" pageWidth="827" pageHeight="1169" math="0" shadow="0">
<root>
<mxCell id="0"/>
<mxCell id="1" parent="0"/>
<mxCell id="nxAZWsbltNgFDeP3juEl-27" value="" style="edgeStyle=orthogonalEdgeStyle;rounded=0;orthogonalLoop=1;jettySize=auto;html=1;" parent="1" source="nxAZWsbltNgFDeP3juEl-1" target="nxAZWsbltNgFDeP3juEl-15" edge="1">
<mxGeometry relative="1" as="geometry">
<Array as="points">
<mxPoint x="120" y="120"/>
<mxPoint x="120" y="120"/>
</Array>
</mxGeometry>
</mxCell>
<mxCell id="nxAZWsbltNgFDeP3juEl-1" value="Пользователь" style="shape=umlActor;verticalLabelPosition=bottom;verticalAlign=top;html=1;outlineConnect=0;" parent="1" vertex="1">
<mxGeometry x="40" y="90" width="30" height="60" as="geometry"/>
</mxCell>
<mxCell id="nxAZWsbltNgFDeP3juEl-134" style="edgeStyle=orthogonalEdgeStyle;rounded=0;orthogonalLoop=1;jettySize=auto;html=1;" parent="1" source="nxAZWsbltNgFDeP3juEl-15" edge="1">
<mxGeometry relative="1" as="geometry">
<mxPoint x="400" y="480" as="targetPoint"/>
<Array as="points">
<mxPoint x="387" y="480"/>
</Array>
</mxGeometry>
</mxCell>
<mxCell id="nxAZWsbltNgFDeP3juEl-15" value="Вход в систему" style="shape=umlFrame;whiteSpace=wrap;html=1;pointerEvents=0;width=70;height=30;" parent="1" vertex="1">
<mxGeometry x="140" y="40" width="640" height="200" as="geometry"/>
</mxCell>
<mxCell id="nxAZWsbltNgFDeP3juEl-21" value="" style="edgeStyle=orthogonalEdgeStyle;rounded=0;orthogonalLoop=1;jettySize=auto;html=1;dashed=1;" parent="1" source="nxAZWsbltNgFDeP3juEl-16" target="nxAZWsbltNgFDeP3juEl-19" edge="1">
<mxGeometry relative="1" as="geometry"/>
</mxCell>
<mxCell id="nxAZWsbltNgFDeP3juEl-25" value="include" style="edgeLabel;html=1;align=center;verticalAlign=middle;resizable=0;points=[];" parent="nxAZWsbltNgFDeP3juEl-21" vertex="1" connectable="0">
<mxGeometry x="0.5259" y="-4" relative="1" as="geometry">
<mxPoint x="2" y="-14" as="offset"/>
</mxGeometry>
</mxCell>
<mxCell id="nxAZWsbltNgFDeP3juEl-16" value="Аутентификация" style="rounded=1;whiteSpace=wrap;html=1;" parent="1" vertex="1">
<mxGeometry x="220" y="60" width="120" height="60" as="geometry"/>
</mxCell>
<mxCell id="nxAZWsbltNgFDeP3juEl-22" value="" style="edgeStyle=orthogonalEdgeStyle;rounded=0;orthogonalLoop=1;jettySize=auto;html=1;dashed=1;" parent="1" source="nxAZWsbltNgFDeP3juEl-17" target="nxAZWsbltNgFDeP3juEl-19" edge="1">
<mxGeometry relative="1" as="geometry"/>
</mxCell>
<mxCell id="nxAZWsbltNgFDeP3juEl-17" value="Регистрация" style="rounded=1;whiteSpace=wrap;html=1;" parent="1" vertex="1">
<mxGeometry x="220" y="140" width="120" height="60" as="geometry"/>
</mxCell>
<mxCell id="nxAZWsbltNgFDeP3juEl-24" value="" style="edgeStyle=orthogonalEdgeStyle;rounded=0;orthogonalLoop=1;jettySize=auto;html=1;dashed=1;" parent="1" source="nxAZWsbltNgFDeP3juEl-19" target="nxAZWsbltNgFDeP3juEl-20" edge="1">
<mxGeometry relative="1" as="geometry"/>
</mxCell>
<mxCell id="nxAZWsbltNgFDeP3juEl-19" value="Авторизация" style="rounded=1;whiteSpace=wrap;html=1;" parent="1" vertex="1">
<mxGeometry x="460" y="100" width="120" height="60" as="geometry"/>
</mxCell>
<mxCell id="nxAZWsbltNgFDeP3juEl-20" value="Выбор роли" style="rounded=1;whiteSpace=wrap;html=1;" parent="1" vertex="1">
<mxGeometry x="640" y="100" width="120" height="60" as="geometry"/>
</mxCell>
<mxCell id="nxAZWsbltNgFDeP3juEl-26" value="include" style="edgeLabel;html=1;align=center;verticalAlign=middle;resizable=0;points=[];" parent="1" vertex="1" connectable="0">
<mxGeometry x="610" y="120" as="geometry"/>
</mxCell>
<mxCell id="nxAZWsbltNgFDeP3juEl-89" style="edgeStyle=orthogonalEdgeStyle;rounded=0;orthogonalLoop=1;jettySize=auto;html=1;" parent="1" source="nxAZWsbltNgFDeP3juEl-28" target="nxAZWsbltNgFDeP3juEl-34" edge="1">
<mxGeometry relative="1" as="geometry"/>
</mxCell>
<mxCell id="nxAZWsbltNgFDeP3juEl-90" style="edgeStyle=orthogonalEdgeStyle;rounded=0;orthogonalLoop=1;jettySize=auto;html=1;entryX=0;entryY=0.5;entryDx=0;entryDy=0;" parent="1" source="nxAZWsbltNgFDeP3juEl-28" target="nxAZWsbltNgFDeP3juEl-35" edge="1">
<mxGeometry relative="1" as="geometry"/>
</mxCell>
<mxCell id="nxAZWsbltNgFDeP3juEl-28" value="Владелец" style="shape=umlActor;verticalLabelPosition=bottom;verticalAlign=top;html=1;outlineConnect=0;" parent="1" vertex="1">
<mxGeometry x="30" y="445" width="30" height="60" as="geometry"/>
</mxCell>
<mxCell id="nxAZWsbltNgFDeP3juEl-42" value="" style="edgeStyle=orthogonalEdgeStyle;rounded=0;orthogonalLoop=1;jettySize=auto;html=1;entryX=0;entryY=0.5;entryDx=0;entryDy=0;" parent="1" target="nxAZWsbltNgFDeP3juEl-38" edge="1">
<mxGeometry relative="1" as="geometry">
<mxPoint x="120" y="830" as="sourcePoint"/>
<Array as="points">
<mxPoint x="120" y="859"/>
<mxPoint x="120" y="759"/>
</Array>
</mxGeometry>
</mxCell>
<mxCell id="nxAZWsbltNgFDeP3juEl-31" value="Опекун" style="shape=umlActor;verticalLabelPosition=bottom;verticalAlign=top;html=1;outlineConnect=0;" parent="1" vertex="1">
<mxGeometry x="40" y="810" width="30" height="60" as="geometry"/>
</mxCell>
<mxCell id="nxAZWsbltNgFDeP3juEl-32" value="Действия с карточками" style="shape=umlFrame;whiteSpace=wrap;html=1;pointerEvents=0;width=90;height=35;" parent="1" vertex="1">
<mxGeometry x="130" y="315" width="190" height="705" as="geometry"/>
</mxCell>
<mxCell id="nxAZWsbltNgFDeP3juEl-57" style="edgeStyle=orthogonalEdgeStyle;rounded=0;orthogonalLoop=1;jettySize=auto;html=1;exitX=1;exitY=0.5;exitDx=0;exitDy=0;dashed=1;" parent="1" edge="1">
<mxGeometry relative="1" as="geometry">
<mxPoint x="270.24000000000007" y="380" as="sourcePoint"/>
<mxPoint x="400" y="480" as="targetPoint"/>
<Array as="points">
<mxPoint x="310" y="380"/>
<mxPoint x="310" y="480"/>
</Array>
</mxGeometry>
</mxCell>
<mxCell id="nxAZWsbltNgFDeP3juEl-33" value="Создать карточку животного" style="rounded=1;whiteSpace=wrap;html=1;" parent="1" vertex="1">
<mxGeometry x="160" y="370" width="120" height="60" as="geometry"/>
</mxCell>
<mxCell id="nxAZWsbltNgFDeP3juEl-56" style="edgeStyle=orthogonalEdgeStyle;rounded=0;orthogonalLoop=1;jettySize=auto;html=1;exitX=1;exitY=0.5;exitDx=0;exitDy=0;dashed=1;endArrow=none;endFill=0;" parent="1" source="nxAZWsbltNgFDeP3juEl-34" edge="1">
<mxGeometry relative="1" as="geometry">
<mxPoint x="310" y="480" as="targetPoint"/>
<Array as="points">
<mxPoint x="280" y="480"/>
</Array>
</mxGeometry>
</mxCell>
<mxCell id="nxAZWsbltNgFDeP3juEl-34" value="Редактировать карточку животного" style="rounded=1;whiteSpace=wrap;html=1;" parent="1" vertex="1">
<mxGeometry x="160" y="445" width="120" height="60" as="geometry"/>
</mxCell>
<mxCell id="nxAZWsbltNgFDeP3juEl-55" style="rounded=0;orthogonalLoop=1;jettySize=auto;html=1;exitX=1;exitY=0.5;exitDx=0;exitDy=0;dashed=1;edgeStyle=orthogonalEdgeStyle;endArrow=none;endFill=0;" parent="1" source="nxAZWsbltNgFDeP3juEl-35" edge="1">
<mxGeometry relative="1" as="geometry">
<mxPoint x="310" y="480" as="targetPoint"/>
</mxGeometry>
</mxCell>
<mxCell id="nxAZWsbltNgFDeP3juEl-35" value="Удалить карточку животного" style="rounded=1;whiteSpace=wrap;html=1;" parent="1" vertex="1">
<mxGeometry x="160" y="525" width="120" height="60" as="geometry"/>
</mxCell>
<mxCell id="nxAZWsbltNgFDeP3juEl-115" style="edgeStyle=orthogonalEdgeStyle;rounded=0;orthogonalLoop=1;jettySize=auto;html=1;endArrow=none;endFill=0;dashed=1;" parent="1" source="nxAZWsbltNgFDeP3juEl-38" edge="1">
<mxGeometry relative="1" as="geometry">
<mxPoint x="310" y="869" as="targetPoint"/>
<Array as="points">
<mxPoint x="310" y="759"/>
<mxPoint x="310" y="869"/>
</Array>
</mxGeometry>
</mxCell>
<mxCell id="nxAZWsbltNgFDeP3juEl-38" value="Создать карточку опекуна" style="rounded=1;whiteSpace=wrap;html=1;" parent="1" vertex="1">
<mxGeometry x="160" y="729" width="120" height="60" as="geometry"/>
</mxCell>
<mxCell id="nxAZWsbltNgFDeP3juEl-112" style="edgeStyle=orthogonalEdgeStyle;rounded=0;orthogonalLoop=1;jettySize=auto;html=1;endArrow=none;endFill=0;dashed=1;" parent="1" source="nxAZWsbltNgFDeP3juEl-39" edge="1">
<mxGeometry relative="1" as="geometry">
<mxPoint x="310" y="829" as="targetPoint"/>
<Array as="points">
<mxPoint x="310" y="829"/>
</Array>
</mxGeometry>
</mxCell>
<mxCell id="nxAZWsbltNgFDeP3juEl-39" value="Редактировать карточку опекуна" style="rounded=1;whiteSpace=wrap;html=1;" parent="1" vertex="1">
<mxGeometry x="160" y="799" width="120" height="60" as="geometry"/>
</mxCell>
<mxCell id="nxAZWsbltNgFDeP3juEl-40" value="Удалить карточку опекуна" style="rounded=1;whiteSpace=wrap;html=1;" parent="1" vertex="1">
<mxGeometry x="160" y="879" width="120" height="60" as="geometry"/>
</mxCell>
<mxCell id="nxAZWsbltNgFDeP3juEl-113" style="edgeStyle=orthogonalEdgeStyle;rounded=0;orthogonalLoop=1;jettySize=auto;html=1;endArrow=none;endFill=0;dashed=1;" parent="1" edge="1">
<mxGeometry relative="1" as="geometry">
<mxPoint x="360" y="830" as="targetPoint"/>
<Array as="points">
<mxPoint x="280" y="909"/>
<mxPoint x="310" y="909"/>
<mxPoint x="310" y="830"/>
<mxPoint x="360" y="830"/>
</Array>
<mxPoint x="280" y="919" as="sourcePoint"/>
</mxGeometry>
</mxCell>
<mxCell id="nxAZWsbltNgFDeP3juEl-44" value="" style="endArrow=classic;html=1;rounded=0;entryX=0;entryY=0.5;entryDx=0;entryDy=0;" parent="1" target="nxAZWsbltNgFDeP3juEl-39" edge="1">
<mxGeometry width="50" height="50" relative="1" as="geometry">
<mxPoint x="80" y="829" as="sourcePoint"/>
<mxPoint x="110" y="569" as="targetPoint"/>
<Array as="points">
<mxPoint x="120" y="829"/>
</Array>
</mxGeometry>
</mxCell>
<mxCell id="nxAZWsbltNgFDeP3juEl-45" value="" style="endArrow=classic;html=1;rounded=0;entryX=0;entryY=0.5;entryDx=0;entryDy=0;" parent="1" edge="1">
<mxGeometry width="50" height="50" relative="1" as="geometry">
<mxPoint x="80" y="829" as="sourcePoint"/>
<mxPoint x="160" y="908" as="targetPoint"/>
<Array as="points">
<mxPoint x="120" y="829"/>
<mxPoint x="120" y="908"/>
</Array>
</mxGeometry>
</mxCell>
<mxCell id="nxAZWsbltNgFDeP3juEl-48" value="include" style="text;html=1;align=center;verticalAlign=middle;whiteSpace=wrap;rounded=0;rotation=0;" parent="1" vertex="1">
<mxGeometry x="320" y="449" width="60" height="30" as="geometry"/>
</mxCell>
<mxCell id="nxAZWsbltNgFDeP3juEl-66" style="edgeStyle=orthogonalEdgeStyle;rounded=0;orthogonalLoop=1;jettySize=auto;html=1;entryX=0;entryY=0.5;entryDx=0;entryDy=0;" parent="1" source="nxAZWsbltNgFDeP3juEl-28" target="nxAZWsbltNgFDeP3juEl-33" edge="1">
<mxGeometry relative="1" as="geometry"/>
</mxCell>
<mxCell id="nxAZWsbltNgFDeP3juEl-67" value="" style="endArrow=none;html=1;rounded=0;exitX=0;exitY=0.404;exitDx=0;exitDy=0;exitPerimeter=0;entryX=1.001;entryY=0.404;entryDx=0;entryDy=0;entryPerimeter=0;" parent="1" source="nxAZWsbltNgFDeP3juEl-32" target="nxAZWsbltNgFDeP3juEl-32" edge="1">
<mxGeometry width="50" height="50" relative="1" as="geometry">
<mxPoint x="510" y="450" as="sourcePoint"/>
<mxPoint x="1330" y="639" as="targetPoint"/>
</mxGeometry>
</mxCell>
<mxCell id="nxAZWsbltNgFDeP3juEl-68" style="edgeStyle=orthogonalEdgeStyle;rounded=0;orthogonalLoop=1;jettySize=auto;html=1;entryX=0;entryY=0.5;entryDx=0;entryDy=0;exitX=0.5;exitY=0;exitDx=0;exitDy=0;" parent="1" source="nxAZWsbltNgFDeP3juEl-70" target="nxAZWsbltNgFDeP3juEl-71" edge="1">
<mxGeometry relative="1" as="geometry"/>
</mxCell>
<mxCell id="nxAZWsbltNgFDeP3juEl-69" style="edgeStyle=orthogonalEdgeStyle;rounded=0;orthogonalLoop=1;jettySize=auto;html=1;entryX=0;entryY=0.5;entryDx=0;entryDy=0;exitX=0.5;exitY=1;exitDx=0;exitDy=0;" parent="1" source="nxAZWsbltNgFDeP3juEl-70" target="nxAZWsbltNgFDeP3juEl-73" edge="1">
<mxGeometry relative="1" as="geometry">
<Array as="points">
<mxPoint x="467" y="554"/>
</Array>
</mxGeometry>
</mxCell>
<mxCell id="nxAZWsbltNgFDeP3juEl-70" value="Посмотреть ленту опекунов" style="rounded=1;whiteSpace=wrap;html=1;" parent="1" vertex="1">
<mxGeometry x="407" y="444" width="120" height="60" as="geometry"/>
</mxCell>
<mxCell id="nxAZWsbltNgFDeP3juEl-71" value="Найти опекуна по месторасположению" style="rounded=1;whiteSpace=wrap;html=1;" parent="1" vertex="1">
<mxGeometry x="557" y="359" width="120" height="60" as="geometry"/>
</mxCell>
<mxCell id="nxAZWsbltNgFDeP3juEl-72" style="edgeStyle=orthogonalEdgeStyle;rounded=0;orthogonalLoop=1;jettySize=auto;html=1;entryX=0.5;entryY=1;entryDx=0;entryDy=0;" parent="1" source="nxAZWsbltNgFDeP3juEl-73" target="nxAZWsbltNgFDeP3juEl-76" edge="1">
<mxGeometry relative="1" as="geometry"/>
</mxCell>
<mxCell id="nxAZWsbltNgFDeP3juEl-73" value="Выбрать опекуна" style="rounded=1;whiteSpace=wrap;html=1;" parent="1" vertex="1">
<mxGeometry x="557" y="524" width="120" height="60" as="geometry"/>
</mxCell>
<mxCell id="nxAZWsbltNgFDeP3juEl-74" value="extend" style="text;html=1;align=center;verticalAlign=middle;whiteSpace=wrap;rounded=0;rotation=90;" parent="1" vertex="1">
<mxGeometry x="597" y="459" width="60" height="30" as="geometry"/>
</mxCell>
<mxCell id="nxAZWsbltNgFDeP3juEl-76" value="Забронировать опекуна" style="rounded=1;whiteSpace=wrap;html=1;" parent="1" vertex="1">
<mxGeometry x="707" y="445" width="120" height="60" as="geometry"/>
</mxCell>
<mxCell id="nxAZWsbltNgFDeP3juEl-142" style="edgeStyle=orthogonalEdgeStyle;rounded=0;orthogonalLoop=1;jettySize=auto;html=1;entryX=0;entryY=0.5;entryDx=0;entryDy=0;dashed=1;" parent="1" source="nxAZWsbltNgFDeP3juEl-79" target="nxAZWsbltNgFDeP3juEl-122" edge="1">
<mxGeometry relative="1" as="geometry"/>
</mxCell>
<mxCell id="nxAZWsbltNgFDeP3juEl-143" value="extend" style="edgeLabel;html=1;align=center;verticalAlign=middle;resizable=0;points=[];" parent="nxAZWsbltNgFDeP3juEl-142" vertex="1" connectable="0">
<mxGeometry x="-0.1083" relative="1" as="geometry">
<mxPoint x="-25" y="14" as="offset"/>
</mxGeometry>
</mxCell>
<mxCell id="nxAZWsbltNgFDeP3juEl-144" style="edgeStyle=orthogonalEdgeStyle;rounded=0;orthogonalLoop=1;jettySize=auto;html=1;entryX=0;entryY=0.5;entryDx=0;entryDy=0;" parent="1" source="nxAZWsbltNgFDeP3juEl-79" target="nxAZWsbltNgFDeP3juEl-121" edge="1">
<mxGeometry relative="1" as="geometry"/>
</mxCell>
<mxCell id="nxAZWsbltNgFDeP3juEl-79" value="Просмотреть отчет о животном" style="rounded=1;whiteSpace=wrap;html=1;" parent="1" vertex="1">
<mxGeometry x="930" y="445" width="120" height="60" as="geometry"/>
</mxCell>
<mxCell id="nxAZWsbltNgFDeP3juEl-82" style="edgeStyle=orthogonalEdgeStyle;rounded=0;orthogonalLoop=1;jettySize=auto;html=1;entryX=0.5;entryY=0;entryDx=0;entryDy=0;dashed=1;" parent="1" source="nxAZWsbltNgFDeP3juEl-71" target="nxAZWsbltNgFDeP3juEl-73" edge="1">
<mxGeometry relative="1" as="geometry">
<mxPoint x="617" y="519" as="targetPoint"/>
</mxGeometry>
</mxCell>
<mxCell id="nxAZWsbltNgFDeP3juEl-83" value="Поиск опекуна" style="shape=umlFrame;whiteSpace=wrap;html=1;pointerEvents=0;width=90;height=35;" parent="1" vertex="1">
<mxGeometry x="400" y="315" width="450" height="285" as="geometry"/>
</mxCell>
<mxCell id="nxAZWsbltNgFDeP3juEl-87" value="Взаимодействие с опекуном" style="shape=umlFrame;whiteSpace=wrap;html=1;pointerEvents=0;width=140;height=45;" parent="1" vertex="1">
<mxGeometry x="920" y="315" width="320" height="285" as="geometry"/>
</mxCell>
<mxCell id="nxAZWsbltNgFDeP3juEl-88" style="edgeStyle=orthogonalEdgeStyle;rounded=0;orthogonalLoop=1;jettySize=auto;html=1;" parent="1" source="nxAZWsbltNgFDeP3juEl-83" edge="1">
<mxGeometry relative="1" as="geometry">
<mxPoint x="920" y="480" as="targetPoint"/>
<Array as="points">
<mxPoint x="920" y="480"/>
</Array>
</mxGeometry>
</mxCell>
<mxCell id="nxAZWsbltNgFDeP3juEl-102" style="edgeStyle=orthogonalEdgeStyle;rounded=0;orthogonalLoop=1;jettySize=auto;html=1;entryX=0;entryY=0.5;entryDx=0;entryDy=0;exitX=0.5;exitY=0;exitDx=0;exitDy=0;" parent="1" source="nxAZWsbltNgFDeP3juEl-104" target="nxAZWsbltNgFDeP3juEl-105" edge="1">
<mxGeometry relative="1" as="geometry"/>
</mxCell>
<mxCell id="nxAZWsbltNgFDeP3juEl-103" style="edgeStyle=orthogonalEdgeStyle;rounded=0;orthogonalLoop=1;jettySize=auto;html=1;entryX=0;entryY=0.5;entryDx=0;entryDy=0;exitX=0.5;exitY=1;exitDx=0;exitDy=0;" parent="1" source="nxAZWsbltNgFDeP3juEl-104" target="nxAZWsbltNgFDeP3juEl-107" edge="1">
<mxGeometry relative="1" as="geometry">
<Array as="points">
<mxPoint x="467" y="909"/>
</Array>
</mxGeometry>
</mxCell>
<mxCell id="nxAZWsbltNgFDeP3juEl-104" value="Посмотреть ленту животных" style="rounded=1;whiteSpace=wrap;html=1;" parent="1" vertex="1">
<mxGeometry x="407" y="799" width="120" height="60" as="geometry"/>
</mxCell>
<mxCell id="nxAZWsbltNgFDeP3juEl-105" value="Найти животного по месторасположению" style="rounded=1;whiteSpace=wrap;html=1;" parent="1" vertex="1">
<mxGeometry x="557" y="714" width="120" height="60" as="geometry"/>
</mxCell>
<mxCell id="nxAZWsbltNgFDeP3juEl-106" style="edgeStyle=orthogonalEdgeStyle;rounded=0;orthogonalLoop=1;jettySize=auto;html=1;entryX=0.5;entryY=1;entryDx=0;entryDy=0;" parent="1" source="nxAZWsbltNgFDeP3juEl-107" target="nxAZWsbltNgFDeP3juEl-109" edge="1">
<mxGeometry relative="1" as="geometry">
<Array as="points">
<mxPoint x="767" y="909"/>
</Array>
</mxGeometry>
</mxCell>
<mxCell id="nxAZWsbltNgFDeP3juEl-107" value="Выбрать животного" style="rounded=1;whiteSpace=wrap;html=1;" parent="1" vertex="1">
<mxGeometry x="557" y="879" width="120" height="60" as="geometry"/>
</mxCell>
<mxCell id="nxAZWsbltNgFDeP3juEl-108" value="extend" style="text;html=1;align=center;verticalAlign=middle;whiteSpace=wrap;rounded=0;rotation=90;" parent="1" vertex="1">
<mxGeometry x="597" y="814" width="60" height="30" as="geometry"/>
</mxCell>
<mxCell id="nxAZWsbltNgFDeP3juEl-109" value="Забронировать передержку" style="rounded=1;whiteSpace=wrap;html=1;" parent="1" vertex="1">
<mxGeometry x="707" y="799" width="120" height="60" as="geometry"/>
</mxCell>
<mxCell id="nxAZWsbltNgFDeP3juEl-110" style="edgeStyle=orthogonalEdgeStyle;rounded=0;orthogonalLoop=1;jettySize=auto;html=1;entryX=0.5;entryY=0;entryDx=0;entryDy=0;dashed=1;" parent="1" source="nxAZWsbltNgFDeP3juEl-105" target="nxAZWsbltNgFDeP3juEl-107" edge="1">
<mxGeometry relative="1" as="geometry">
<mxPoint x="617" y="874" as="targetPoint"/>
</mxGeometry>
</mxCell>
<mxCell id="nxAZWsbltNgFDeP3juEl-111" value="Поиск животного" style="shape=umlFrame;whiteSpace=wrap;html=1;pointerEvents=0;width=90;height=35;" parent="1" vertex="1">
<mxGeometry x="400" y="670" width="450" height="285" as="geometry"/>
</mxCell>
<mxCell id="nxAZWsbltNgFDeP3juEl-116" value="" style="endArrow=classic;html=1;rounded=0;entryX=0;entryY=0.596;entryDx=0;entryDy=0;entryPerimeter=0;dashed=1;" parent="1" edge="1">
<mxGeometry width="50" height="50" relative="1" as="geometry">
<mxPoint x="360" y="829.96" as="sourcePoint"/>
<mxPoint x="400" y="829.82" as="targetPoint"/>
</mxGeometry>
</mxCell>
<mxCell id="nxAZWsbltNgFDeP3juEl-117" value="include" style="text;html=1;align=center;verticalAlign=middle;whiteSpace=wrap;rounded=0;rotation=0;" parent="1" vertex="1">
<mxGeometry x="320" y="799" width="60" height="30" as="geometry"/>
</mxCell>
<mxCell id="nxAZWsbltNgFDeP3juEl-121" value="Оплатить услуги" style="rounded=1;whiteSpace=wrap;html=1;" parent="1" vertex="1">
<mxGeometry x="1100" y="359" width="120" height="60" as="geometry"/>
</mxCell>
<mxCell id="nxAZWsbltNgFDeP3juEl-122" value="Оставить отзыв и рейтинг об опекуне" style="rounded=1;whiteSpace=wrap;html=1;" parent="1" vertex="1">
<mxGeometry x="1100" y="520" width="120" height="60" as="geometry"/>
</mxCell>
<mxCell id="nxAZWsbltNgFDeP3juEl-124" style="edgeStyle=orthogonalEdgeStyle;rounded=0;orthogonalLoop=1;jettySize=auto;html=1;dashed=1;" parent="1" source="nxAZWsbltNgFDeP3juEl-126" target="nxAZWsbltNgFDeP3juEl-128" edge="1">
<mxGeometry relative="1" as="geometry">
<Array as="points">
<mxPoint x="1060" y="829"/>
<mxPoint x="1060" y="905"/>
</Array>
</mxGeometry>
</mxCell>
<mxCell id="nxAZWsbltNgFDeP3juEl-125" style="edgeStyle=orthogonalEdgeStyle;rounded=0;orthogonalLoop=1;jettySize=auto;html=1;exitX=1;exitY=0.5;exitDx=0;exitDy=0;" parent="1" source="nxAZWsbltNgFDeP3juEl-126" target="nxAZWsbltNgFDeP3juEl-127" edge="1">
<mxGeometry relative="1" as="geometry">
<mxPoint x="1050" y="832.8" as="sourcePoint"/>
<mxPoint x="1080" y="745" as="targetPoint"/>
<Array as="points">
<mxPoint x="1060" y="829"/>
<mxPoint x="1060" y="745"/>
</Array>
</mxGeometry>
</mxCell>
<mxCell id="nxAZWsbltNgFDeP3juEl-132" style="edgeStyle=orthogonalEdgeStyle;rounded=0;orthogonalLoop=1;jettySize=auto;html=1;dashed=1;" parent="1" source="nxAZWsbltNgFDeP3juEl-126" target="nxAZWsbltNgFDeP3juEl-130" edge="1">
<mxGeometry relative="1" as="geometry"/>
</mxCell>
<mxCell id="nxAZWsbltNgFDeP3juEl-126" value="Отправить отчет о животном" style="rounded=1;whiteSpace=wrap;html=1;" parent="1" vertex="1">
<mxGeometry x="930" y="799" width="120" height="60" as="geometry"/>
</mxCell>
<mxCell id="nxAZWsbltNgFDeP3juEl-127" value="Получить оплату за услуги" style="rounded=1;whiteSpace=wrap;html=1;" parent="1" vertex="1">
<mxGeometry x="1100" y="714" width="120" height="60" as="geometry"/>
</mxCell>
<mxCell id="nxAZWsbltNgFDeP3juEl-128" value="Оставить отзыв и рейтинг об опекуне" style="rounded=1;whiteSpace=wrap;html=1;" parent="1" vertex="1">
<mxGeometry x="1100" y="879" width="120" height="60" as="geometry"/>
</mxCell>
<mxCell id="nxAZWsbltNgFDeP3juEl-129" value="Взаимодействие с животным" style="shape=umlFrame;whiteSpace=wrap;html=1;pointerEvents=0;width=140;height=45;" parent="1" vertex="1">
<mxGeometry x="920" y="670" width="320" height="285" as="geometry"/>
</mxCell>
<mxCell id="nxAZWsbltNgFDeP3juEl-130" value="Просмотреть отправленный отчет" style="rounded=1;whiteSpace=wrap;html=1;" parent="1" vertex="1">
<mxGeometry x="1100" y="799" width="120" height="60" as="geometry"/>
</mxCell>
<mxCell id="nxAZWsbltNgFDeP3juEl-133" style="edgeStyle=orthogonalEdgeStyle;rounded=0;orthogonalLoop=1;jettySize=auto;html=1;entryX=0;entryY=0.5;entryDx=0;entryDy=0;entryPerimeter=0;" parent="1" source="nxAZWsbltNgFDeP3juEl-111" target="nxAZWsbltNgFDeP3juEl-129" edge="1">
<mxGeometry relative="1" as="geometry"/>
</mxCell>
<mxCell id="nxAZWsbltNgFDeP3juEl-138" value="" style="endArrow=none;html=1;rounded=0;" parent="1" edge="1">
<mxGeometry width="50" height="50" relative="1" as="geometry">
<mxPoint x="390" y="830" as="sourcePoint"/>
<mxPoint x="387" y="479" as="targetPoint"/>
</mxGeometry>
</mxCell>
<mxCell id="nxAZWsbltNgFDeP3juEl-140" value="" style="endArrow=none;html=1;rounded=0;" parent="1" edge="1">
<mxGeometry width="50" height="50" relative="1" as="geometry">
<mxPoint x="390" y="840" as="sourcePoint"/>
<mxPoint x="390" y="840" as="targetPoint"/>
<Array as="points"/>
</mxGeometry>
</mxCell>
<mxCell id="nxAZWsbltNgFDeP3juEl-145" value="extend" style="text;html=1;align=center;verticalAlign=middle;resizable=0;points=[];autosize=1;strokeColor=none;fillColor=none;" parent="1" vertex="1">
<mxGeometry x="1050" y="849" width="60" height="30" as="geometry"/>
</mxCell>
<mxCell id="nxAZWsbltNgFDeP3juEl-146" value="" style="endArrow=classic;html=1;rounded=0;entryX=0.429;entryY=0.001;entryDx=0;entryDy=0;entryPerimeter=0;endFill=1;" parent="1" target="nxAZWsbltNgFDeP3juEl-83" edge="1">
<mxGeometry width="50" height="50" relative="1" as="geometry">
<mxPoint x="387" y="240" as="sourcePoint"/>
<mxPoint x="593" y="310" as="targetPoint"/>
<Array as="points">
<mxPoint x="387" y="259"/>
<mxPoint x="387" y="269"/>
<mxPoint x="593" y="269"/>
</Array>
</mxGeometry>
</mxCell>
</root>
</mxGraphModel>
</diagram>
<diagram id="FOfEVQTcQo5jWsNTylBy" name="Wireframe">
<mxGraphModel dx="2103" dy="945" grid="1" gridSize="10" guides="1" tooltips="1" connect="1" arrows="1" fold="1" page="1" pageScale="1" pageWidth="827" pageHeight="1169" math="0" shadow="0">
<root>
<mxCell id="0"/>
<mxCell id="1" parent="0"/>
<mxCell id="LzP6a3P3L5XZZJSvpoCF-1" value="" style="verticalLabelPosition=bottom;verticalAlign=top;html=1;shadow=0;dashed=0;strokeWidth=1;shape=mxgraph.android.phone2;strokeColor=#c0c0c0;" parent="1" vertex="1">
<mxGeometry x="350" y="170" width="370" height="700" as="geometry"/>
</mxCell>
<mxCell id="9L7ZPU-WxiNnmdRfyDu_-1" value="" style="rounded=1;whiteSpace=wrap;html=1;" parent="1" vertex="1">
<mxGeometry x="370" y="438" width="100" height="80" as="geometry"/>
</mxCell>
<mxCell id="9L7ZPU-WxiNnmdRfyDu_-6" value="Список (фильтрация):&nbsp;<div>1. Собаки</div><div>2. Кошки</div><div>3. Грызуны&nbsp;</div><div>4. Птицы</div><div>5. Рыбы</div><div>6. Рептилии</div><div>7. Кролики</div><div>8. Фретки (хорьки)</div><div>9. Ежи</div><div>10. Другие (те, что не подходят под данные критерии. Например, хрюшки)</div>" style="rounded=1;whiteSpace=wrap;html=1;arcSize=0;" parent="1" vertex="1">
<mxGeometry x="70" y="230" width="260" height="217" as="geometry"/>
</mxCell>
<mxCell id="9L7ZPU-WxiNnmdRfyDu_-13" value="" style="rounded=1;whiteSpace=wrap;html=1;" parent="1" vertex="1">
<mxGeometry x="370" y="248" width="330" height="40" as="geometry"/>
</mxCell>
<mxCell id="9L7ZPU-WxiNnmdRfyDu_-15" value="Типы животных" style="rounded=1;whiteSpace=wrap;html=1;" parent="1" vertex="1">
<mxGeometry x="370" y="308" width="100" height="40" as="geometry"/>
</mxCell>
<mxCell id="9L7ZPU-WxiNnmdRfyDu_-16" value="Типы животных" style="rounded=1;whiteSpace=wrap;html=1;" parent="1" vertex="1">
<mxGeometry x="485" y="308" width="100" height="40" as="geometry"/>
</mxCell>
<mxCell id="9L7ZPU-WxiNnmdRfyDu_-17" value="Типы животных" style="rounded=1;whiteSpace=wrap;html=1;" parent="1" vertex="1">
<mxGeometry x="600" y="308" width="100" height="40" as="geometry"/>
</mxCell>
<mxCell id="9L7ZPU-WxiNnmdRfyDu_-18" value="Типы животных" style="rounded=1;whiteSpace=wrap;html=1;" parent="1" vertex="1">
<mxGeometry x="370" y="358" width="100" height="40" as="geometry"/>
</mxCell>
<mxCell id="9L7ZPU-WxiNnmdRfyDu_-19" value="Типы животных" style="rounded=1;whiteSpace=wrap;html=1;" parent="1" vertex="1">
<mxGeometry x="485" y="358" width="100" height="40" as="geometry"/>
</mxCell>
<mxCell id="9L7ZPU-WxiNnmdRfyDu_-20" value="Типы животных" style="rounded=1;whiteSpace=wrap;html=1;" parent="1" vertex="1">
<mxGeometry x="600" y="358" width="100" height="40" as="geometry"/>
</mxCell>
<mxCell id="9L7ZPU-WxiNnmdRfyDu_-22" value="" style="endArrow=none;html=1;rounded=0;" parent="1" edge="1">
<mxGeometry width="50" height="50" relative="1" as="geometry">
<mxPoint x="370" y="418" as="sourcePoint"/>
<mxPoint x="700" y="418" as="targetPoint"/>
</mxGeometry>
</mxCell>
<mxCell id="9L7ZPU-WxiNnmdRfyDu_-23" value="" style="rounded=1;whiteSpace=wrap;html=1;" parent="1" vertex="1">
<mxGeometry x="485" y="438" width="100" height="80" as="geometry"/>
</mxCell>
<mxCell id="9L7ZPU-WxiNnmdRfyDu_-24" value="" style="rounded=1;whiteSpace=wrap;html=1;" parent="1" vertex="1">
<mxGeometry x="600" y="438" width="100" height="80" as="geometry"/>
</mxCell>
<mxCell id="9L7ZPU-WxiNnmdRfyDu_-25" value="" style="rounded=1;whiteSpace=wrap;html=1;" parent="1" vertex="1">
<mxGeometry x="370" y="528" width="100" height="80" as="geometry"/>
</mxCell>
<mxCell id="9L7ZPU-WxiNnmdRfyDu_-26" value="" style="rounded=1;whiteSpace=wrap;html=1;" parent="1" vertex="1">
<mxGeometry x="485" y="528" width="100" height="80" as="geometry"/>
</mxCell>
<mxCell id="9L7ZPU-WxiNnmdRfyDu_-27" value="" style="rounded=1;whiteSpace=wrap;html=1;" parent="1" vertex="1">
<mxGeometry x="600" y="528" width="100" height="80" as="geometry"/>
</mxCell>
<mxCell id="9L7ZPU-WxiNnmdRfyDu_-28" value="" style="rounded=1;whiteSpace=wrap;html=1;" parent="1" vertex="1">
<mxGeometry x="370" y="618" width="100" height="80" as="geometry"/>
</mxCell>
<mxCell id="9L7ZPU-WxiNnmdRfyDu_-29" value="" style="rounded=1;whiteSpace=wrap;html=1;" parent="1" vertex="1">
<mxGeometry x="485" y="618" width="100" height="80" as="geometry"/>
</mxCell>
<mxCell id="9L7ZPU-WxiNnmdRfyDu_-30" value="" style="rounded=1;whiteSpace=wrap;html=1;" parent="1" vertex="1">
<mxGeometry x="600" y="618" width="100" height="80" as="geometry"/>
</mxCell>
<mxCell id="9L7ZPU-WxiNnmdRfyDu_-34" value="" style="endArrow=none;html=1;rounded=0;" parent="1" edge="1">
<mxGeometry width="50" height="50" relative="1" as="geometry">
<mxPoint x="370" y="750" as="sourcePoint"/>
<mxPoint x="700" y="750" as="targetPoint"/>
</mxGeometry>
</mxCell>
<mxCell id="9L7ZPU-WxiNnmdRfyDu_-35" value="" style="ellipse;whiteSpace=wrap;html=1;aspect=fixed;" parent="1" vertex="1">
<mxGeometry x="370" y="759" width="40" height="40" as="geometry"/>
</mxCell>
<mxCell id="9L7ZPU-WxiNnmdRfyDu_-36" value="" style="ellipse;whiteSpace=wrap;html=1;aspect=fixed;" parent="1" vertex="1">
<mxGeometry x="660" y="759" width="40" height="40" as="geometry"/>
</mxCell>
<mxCell id="9L7ZPU-WxiNnmdRfyDu_-38" value="" style="sketch=0;pointerEvents=1;shadow=0;dashed=0;html=1;strokeColor=default;labelPosition=center;verticalLabelPosition=bottom;verticalAlign=top;outlineConnect=0;align=center;shape=mxgraph.office.concepts.home;fillColor=none;" parent="1" vertex="1">
<mxGeometry x="377.5" y="766.5" width="25" height="25" as="geometry"/>
</mxCell>
<mxCell id="9L7ZPU-WxiNnmdRfyDu_-39" value="" style="html=1;dashed=0;aspect=fixed;verticalLabelPosition=bottom;verticalAlign=top;align=center;shape=mxgraph.gmdl.heart;strokeColor=default;fillColor=none;shadow=0;sketch=0;" parent="1" vertex="1">
<mxGeometry x="583.89" y="766.5" width="32.22" height="29" as="geometry"/>
</mxCell>
<mxCell id="9L7ZPU-WxiNnmdRfyDu_-40" value="" style="sketch=0;pointerEvents=1;shadow=0;dashed=0;html=1;strokeColor=default;fillColor=none;labelPosition=center;verticalLabelPosition=bottom;verticalAlign=top;outlineConnect=0;align=center;shape=mxgraph.office.concepts.search;" parent="1" vertex="1">
<mxGeometry x="660" y="253" width="30" height="30" as="geometry"/>
</mxCell>
<mxCell id="9L7ZPU-WxiNnmdRfyDu_-41" value="" style="ellipse;whiteSpace=wrap;html=1;aspect=fixed;" parent="1" vertex="1">
<mxGeometry x="466" y="758.5" width="40" height="40" as="geometry"/>
</mxCell>
<mxCell id="9L7ZPU-WxiNnmdRfyDu_-42" value="" style="shape=image;html=1;verticalAlign=top;verticalLabelPosition=bottom;labelBackgroundColor=#ffffff;imageAspect=0;aspect=fixed;image=https://cdn0.iconfinder.com/data/icons/phosphor-thin-vol-2/256/dog-thin-128.png" parent="1" vertex="1">
<mxGeometry x="467" y="760" width="38" height="38" as="geometry"/>
</mxCell>
<mxCell id="9L7ZPU-WxiNnmdRfyDu_-44" value="" style="ellipse;whiteSpace=wrap;html=1;aspect=fixed;fillColor=none;" parent="1" vertex="1">
<mxGeometry x="580" y="758" width="40" height="40" as="geometry"/>
</mxCell>
<mxCell id="9L7ZPU-WxiNnmdRfyDu_-46" value="" style="shape=actor;whiteSpace=wrap;html=1;" parent="1" vertex="1">
<mxGeometry x="667.5" y="765.5" width="25" height="26" as="geometry"/>
</mxCell>
<mxCell id="9L7ZPU-WxiNnmdRfyDu_-48" value="карточка животного" style="text;html=1;align=center;verticalAlign=middle;whiteSpace=wrap;rounded=0;" parent="1" vertex="1">
<mxGeometry x="388.89" y="463" width="60" height="30" as="geometry"/>
</mxCell>
<mxCell id="9L7ZPU-WxiNnmdRfyDu_-49" value="карточка животного" style="text;html=1;align=center;verticalAlign=middle;whiteSpace=wrap;rounded=0;" parent="1" vertex="1">
<mxGeometry x="620" y="463" width="60" height="30" as="geometry"/>
</mxCell>
<mxCell id="9L7ZPU-WxiNnmdRfyDu_-50" value="карточка животного" style="text;html=1;align=center;verticalAlign=middle;whiteSpace=wrap;rounded=0;" parent="1" vertex="1">
<mxGeometry x="505" y="463" width="60" height="30" as="geometry"/>
</mxCell>
<mxCell id="9L7ZPU-WxiNnmdRfyDu_-51" value="карточка животного" style="text;html=1;align=center;verticalAlign=middle;whiteSpace=wrap;rounded=0;" parent="1" vertex="1">
<mxGeometry x="620" y="553" width="60" height="30" as="geometry"/>
</mxCell>
<mxCell id="9L7ZPU-WxiNnmdRfyDu_-52" value="карточка животного" style="text;html=1;align=center;verticalAlign=middle;whiteSpace=wrap;rounded=0;" parent="1" vertex="1">
<mxGeometry x="505" y="553" width="60" height="30" as="geometry"/>
</mxCell>
<mxCell id="9L7ZPU-WxiNnmdRfyDu_-53" value="карточка животного" style="text;html=1;align=center;verticalAlign=middle;whiteSpace=wrap;rounded=0;" parent="1" vertex="1">
<mxGeometry x="390" y="553" width="60" height="30" as="geometry"/>
</mxCell>
<mxCell id="9L7ZPU-WxiNnmdRfyDu_-54" value="карточка животного" style="text;html=1;align=center;verticalAlign=middle;whiteSpace=wrap;rounded=0;" parent="1" vertex="1">
<mxGeometry x="620" y="643" width="60" height="30" as="geometry"/>
</mxCell>
<mxCell id="9L7ZPU-WxiNnmdRfyDu_-55" value="карточка животного" style="text;html=1;align=center;verticalAlign=middle;whiteSpace=wrap;rounded=0;" parent="1" vertex="1">
<mxGeometry x="505" y="643" width="60" height="30" as="geometry"/>
</mxCell>
<mxCell id="9L7ZPU-WxiNnmdRfyDu_-56" value="карточка животного" style="text;html=1;align=center;verticalAlign=middle;whiteSpace=wrap;rounded=0;" parent="1" vertex="1">
<mxGeometry x="390" y="643" width="60" height="30" as="geometry"/>
</mxCell>
<mxCell id="ABY2p6BcN-ZF_LkPh89Q-1" value="<h1 style="margin-top: 0px;"><span style="background-color: initial;">Лента животных</span></h1><h1 style="margin-top: 0px;"><span style="background-color: initial;"><font style="font-size: 14px;"><span style="font-weight: normal;">Данный блок будет виден после входа в систему, если </span>роль<span style="font-weight: normal;"> пользователя </span>"Опекун"</font></span></h1>" style="text;html=1;whiteSpace=wrap;overflow=hidden;rounded=0;" parent="1" vertex="1">
<mxGeometry x="70" y="50" width="310" height="120" as="geometry"/>
</mxCell>
<mxCell id="ABY2p6BcN-ZF_LkPh89Q-2" style="edgeStyle=orthogonalEdgeStyle;rounded=0;orthogonalLoop=1;jettySize=auto;html=1;entryX=0.034;entryY=0.241;entryDx=0;entryDy=0;entryPerimeter=0;" parent="1" source="9L7ZPU-WxiNnmdRfyDu_-6" target="LzP6a3P3L5XZZJSvpoCF-1" edge="1">
<mxGeometry relative="1" as="geometry"/>
</mxCell>
<mxCell id="GujkFn3PdoiGofKyWabU-94" value="" style="endArrow=classic;html=1;rounded=0;entryX=0.5;entryY=1;entryDx=0;entryDy=0;exitX=0.5;exitY=0;exitDx=0;exitDy=0;" parent="1" source="GujkFn3PdoiGofKyWabU-95" target="9L7ZPU-WxiNnmdRfyDu_-35" edge="1">
<mxGeometry width="50" height="50" relative="1" as="geometry">
<mxPoint x="390" y="900" as="sourcePoint"/>
<mxPoint x="830" y="710" as="targetPoint"/>
<Array as="points">
<mxPoint x="305" y="850"/>
<mxPoint x="390" y="850"/>
</Array>
</mxGeometry>
</mxCell>
<mxCell id="GujkFn3PdoiGofKyWabU-95" value="При нажатии открывается <b>"Лента животных"</b>" style="text;html=1;align=center;verticalAlign=middle;whiteSpace=wrap;rounded=0;strokeColor=default;" parent="1" vertex="1">
<mxGeometry x="260" y="910" width="90" height="70" as="geometry"/>
</mxCell>
<mxCell id="GujkFn3PdoiGofKyWabU-97" style="edgeStyle=orthogonalEdgeStyle;rounded=0;orthogonalLoop=1;jettySize=auto;html=1;entryX=0.5;entryY=1;entryDx=0;entryDy=0;" parent="1" source="GujkFn3PdoiGofKyWabU-96" edge="1">
<mxGeometry relative="1" as="geometry">
<mxPoint x="484" y="910" as="sourcePoint"/>
<mxPoint x="484" y="799" as="targetPoint"/>
<Array as="points">
<mxPoint x="484" y="880"/>
<mxPoint x="484" y="880"/>
</Array>
</mxGeometry>
</mxCell>
<mxCell id="GujkFn3PdoiGofKyWabU-96" value="При нажатии открывается<div><b>"Отчет о животном", </b>если есть питомец на передержки. Иначе пустая страница</div>" style="text;html=1;align=center;verticalAlign=middle;whiteSpace=wrap;rounded=0;strokeColor=default;" parent="1" vertex="1">
<mxGeometry x="377.5" y="920" width="135" height="90" as="geometry"/>
</mxCell>
<mxCell id="GujkFn3PdoiGofKyWabU-100" style="edgeStyle=orthogonalEdgeStyle;rounded=0;orthogonalLoop=1;jettySize=auto;html=1;" parent="1" source="GujkFn3PdoiGofKyWabU-98" target="9L7ZPU-WxiNnmdRfyDu_-44" edge="1">
<mxGeometry relative="1" as="geometry"/>
</mxCell>
<mxCell id="GujkFn3PdoiGofKyWabU-98" value="При нажатии открывается <b>"Бронирование"</b>, если есть забронированные передержки. Иначе пустая страница" style="text;html=1;align=center;verticalAlign=middle;whiteSpace=wrap;rounded=0;strokeColor=default;" parent="1" vertex="1">
<mxGeometry x="540" y="920" width="120" height="110" as="geometry"/>
</mxCell>
<mxCell id="GujkFn3PdoiGofKyWabU-102" style="edgeStyle=orthogonalEdgeStyle;rounded=0;orthogonalLoop=1;jettySize=auto;html=1;entryX=0.5;entryY=1;entryDx=0;entryDy=0;" parent="1" source="GujkFn3PdoiGofKyWabU-101" target="9L7ZPU-WxiNnmdRfyDu_-36" edge="1">
<mxGeometry relative="1" as="geometry"/>
</mxCell>
<mxCell id="GujkFn3PdoiGofKyWabU-101" value="При нажатии открывается <b>"Информация о вашем аккаунте"</b>" style="text;html=1;align=center;verticalAlign=middle;whiteSpace=wrap;rounded=0;strokeColor=default;" parent="1" vertex="1">
<mxGeometry x="680" y="920" width="107.5" height="80" as="geometry"/>
</mxCell>
<mxCell id="_QEluNP4us-ovRGYHnpS-1" value="" style="verticalLabelPosition=bottom;verticalAlign=top;html=1;shadow=0;dashed=0;strokeWidth=1;shape=mxgraph.android.phone2;strokeColor=#c0c0c0;" parent="1" vertex="1">
<mxGeometry x="1107" y="188" width="370" height="700" as="geometry"/>
</mxCell>
<mxCell id="_QEluNP4us-ovRGYHnpS-2" value="<h1 style="margin-top: 0px;"><span style="background-color: initial;">Карточка животного</span></h1><h1 style="margin-top: 0px;"><span style="background-color: initial; font-size: 14px; font-weight: normal;">Данный блок будет виден после выбора карточки в ленте животных, если</span><span style="background-color: initial; font-size: 14px;"> </span><span style="background-color: initial; font-size: 14px;">роль</span><span style="background-color: initial; font-weight: normal; font-size: 14px;"> </span><span style="background-color: initial; font-size: 14px; font-weight: normal;">пользователя </span><span style="background-color: initial; font-size: 14px;">"Опекун"</span><br></h1>" style="text;html=1;whiteSpace=wrap;overflow=hidden;rounded=0;" parent="1" vertex="1">
<mxGeometry x="870" y="50" width="350" height="120" as="geometry"/>
</mxCell>
<mxCell id="_QEluNP4us-ovRGYHnpS-3" value="фото животного (есть возможность загрузить до 4 фото)" style="rounded=1;whiteSpace=wrap;html=1;" parent="1" vertex="1">
<mxGeometry x="1151" y="288" width="282" height="262" as="geometry"/>
</mxCell>
<mxCell id="_QEluNP4us-ovRGYHnpS-5" value="параметры животного" style="rounded=1;whiteSpace=wrap;html=1;" parent="1" vertex="1">
<mxGeometry x="1151" y="566" width="286" height="94" as="geometry"/>
</mxCell>
<mxCell id="_QEluNP4us-ovRGYHnpS-6" value="инфо о передержке" style="rounded=1;whiteSpace=wrap;html=1;" parent="1" vertex="1">
<mxGeometry x="1151" y="673" width="286" height="57" as="geometry"/>
</mxCell>
<mxCell id="ontQ0EL1ywzfDc0BTjrJ-131" style="edgeStyle=orthogonalEdgeStyle;rounded=0;orthogonalLoop=1;jettySize=auto;html=1;strokeColor=#FF3333;strokeWidth=2;" parent="1" source="_QEluNP4us-ovRGYHnpS-7" target="ontQ0EL1ywzfDc0BTjrJ-80" edge="1">
<mxGeometry relative="1" as="geometry"/>
</mxCell>
<mxCell id="_QEluNP4us-ovRGYHnpS-7" value="Кнопка: <b>забронировать передержку</b>" style="rounded=1;whiteSpace=wrap;html=1;" parent="1" vertex="1">
<mxGeometry x="1151" y="766.5" width="286" height="41" as="geometry"/>
</mxCell>
<mxCell id="ontQ0EL1ywzfDc0BTjrJ-1" value="Список:<div>1. тип животного</div><div>2. имя животного</div><div>3. возраст</div><div><div>4. Пищевые предпочтения</div><div>5. Медикаменты</div><div>6. Физическая активность</div><div>7. Уровень взаимодействия</div><div>8. Уход и гигиена</div><div>9. Особенности здоровья</div><div>10. Поведенческие особенности</div><div>11. Доступные лакомства</div><div>12. Предпочтение в играх</div><div>13. Допустимость с другими животными</div></div><div>14. График кормления</div><div>15. Рейтинг животного</div><div>16. Рейтинг владельца</div>" style="rounded=0;whiteSpace=wrap;html=1;" parent="1" vertex="1">
<mxGeometry x="870" y="450" width="230" height="264" as="geometry"/>
</mxCell>
<mxCell id="ontQ0EL1ywzfDc0BTjrJ-2" value="Список:&nbsp;<div>1. период передержки</div><div>2. стоимость за день</div><div><br></div>" style="rounded=0;whiteSpace=wrap;html=1;" parent="1" vertex="1">
<mxGeometry x="870" y="747.5" width="230" height="60" as="geometry"/>
</mxCell>
<mxCell id="ontQ0EL1ywzfDc0BTjrJ-4" value="" style="endArrow=classic;html=1;rounded=0;exitX=1;exitY=0.5;exitDx=0;exitDy=0;" parent="1" source="ontQ0EL1ywzfDc0BTjrJ-1" target="_QEluNP4us-ovRGYHnpS-5" edge="1">
<mxGeometry width="50" height="50" relative="1" as="geometry">
<mxPoint x="827" y="610" as="sourcePoint"/>
<mxPoint x="877" y="560" as="targetPoint"/>
</mxGeometry>
</mxCell>
<mxCell id="ontQ0EL1ywzfDc0BTjrJ-5" value="" style="endArrow=classic;html=1;rounded=0;exitX=1;exitY=0.5;exitDx=0;exitDy=0;entryX=0;entryY=0.5;entryDx=0;entryDy=0;" parent="1" source="ontQ0EL1ywzfDc0BTjrJ-2" target="_QEluNP4us-ovRGYHnpS-6" edge="1">
<mxGeometry width="50" height="50" relative="1" as="geometry">
<mxPoint x="827" y="610" as="sourcePoint"/>
<mxPoint x="877" y="560" as="targetPoint"/>
</mxGeometry>
</mxCell>
<mxCell id="ontQ0EL1ywzfDc0BTjrJ-6" value="" style="verticalLabelPosition=bottom;verticalAlign=top;html=1;shadow=0;dashed=0;strokeWidth=1;shape=mxgraph.android.phone2;strokeColor=#c0c0c0;" parent="1" vertex="1">
<mxGeometry x="3647" y="198" width="370" height="700" as="geometry"/>
</mxCell>
<mxCell id="ontQ0EL1ywzfDc0BTjrJ-8" value="фото опекуна (есть возможность загрузить до 4 фото)" style="rounded=1;whiteSpace=wrap;html=1;" parent="1" vertex="1">
<mxGeometry x="3691" y="298" width="282" height="262" as="geometry"/>
</mxCell>
<mxCell id="ontQ0EL1ywzfDc0BTjrJ-9" value="информация об опекуне" style="rounded=1;whiteSpace=wrap;html=1;" parent="1" vertex="1">
<mxGeometry x="3691" y="576" width="286" height="94" as="geometry"/>
</mxCell>
<mxCell id="ontQ0EL1ywzfDc0BTjrJ-10" value="инфо о передержке" style="rounded=1;whiteSpace=wrap;html=1;" parent="1" vertex="1">
<mxGeometry x="3691" y="683" width="286" height="57" as="geometry"/>
</mxCell>
<mxCell id="ontQ0EL1ywzfDc0BTjrJ-11" value="Кнопка: <b>забронировать опекуна</b>" style="rounded=1;whiteSpace=wrap;html=1;" parent="1" vertex="1">
<mxGeometry x="3691" y="776.5" width="286" height="41" as="geometry"/>
</mxCell>
<mxCell id="ontQ0EL1ywzfDc0BTjrJ-12" value="Список:<div>1. ФИ</div><div>2. возраст</div><div>3. контактная информация</div><div><div>4. месторасположение</div><div>5. опыт работы с животными</div><div>6. типы животных, с которыми работает опекун</div><div>7. тип жилья (условия содержания)</div></div>" style="rounded=0;whiteSpace=wrap;html=1;" parent="1" vertex="1">
<mxGeometry x="3410" y="520" width="230" height="150" as="geometry"/>
</mxCell>
<mxCell id="ontQ0EL1ywzfDc0BTjrJ-13" value="Список:&nbsp;<div>1. период передержки</div><div>2. стоимость за день</div>" style="rounded=0;whiteSpace=wrap;html=1;" parent="1" vertex="1">
<mxGeometry x="3410" y="683" width="230" height="60" as="geometry"/>
</mxCell>
<mxCell id="ontQ0EL1ywzfDc0BTjrJ-14" value="" style="endArrow=classic;html=1;rounded=0;exitX=1;exitY=0.5;exitDx=0;exitDy=0;" parent="1" source="ontQ0EL1ywzfDc0BTjrJ-12" target="ontQ0EL1ywzfDc0BTjrJ-9" edge="1">
<mxGeometry width="50" height="50" relative="1" as="geometry">
<mxPoint x="3367" y="620" as="sourcePoint"/>
<mxPoint x="3417" y="570" as="targetPoint"/>
</mxGeometry>
</mxCell>
<mxCell id="ontQ0EL1ywzfDc0BTjrJ-15" value="" style="endArrow=classic;html=1;rounded=0;exitX=1;exitY=0.5;exitDx=0;exitDy=0;entryX=0;entryY=0.5;entryDx=0;entryDy=0;" parent="1" source="ontQ0EL1ywzfDc0BTjrJ-13" target="ontQ0EL1ywzfDc0BTjrJ-10" edge="1">
<mxGeometry width="50" height="50" relative="1" as="geometry">
<mxPoint x="3367" y="620" as="sourcePoint"/>
<mxPoint x="3417" y="570" as="targetPoint"/>
</mxGeometry>
</mxCell>
<mxCell id="ontQ0EL1ywzfDc0BTjrJ-16" value="<h1 style="margin-top: 0px;"><span style="background-color: initial;">Карточка опекуна</span></h1><h1 style="margin-top: 0px;"><span style="background-color: initial; font-size: 14px; font-weight: normal;">Данный блок будет виден после выбора карточки в ленте опекунов, если</span><span style="background-color: initial; font-size: 14px;"> </span><span style="background-color: initial; font-size: 14px;">роль</span><span style="background-color: initial; font-weight: normal; font-size: 14px;"> </span><span style="background-color: initial; font-size: 14px; font-weight: normal;">пользователя </span><span style="background-color: initial; font-size: 14px;">"Владелец животного"</span><br></h1>" style="text;html=1;whiteSpace=wrap;overflow=hidden;rounded=0;" parent="1" vertex="1">
<mxGeometry x="3380" y="40" width="410" height="120" as="geometry"/>
</mxCell>
<mxCell id="ontQ0EL1ywzfDc0BTjrJ-17" value="" style="endArrow=classic;html=1;rounded=0;entryX=0;entryY=0.172;entryDx=0;entryDy=0;entryPerimeter=0;exitX=1;exitY=0.5;exitDx=0;exitDy=0;strokeColor=#FF3333;strokeWidth=2;" parent="1" source="9L7ZPU-WxiNnmdRfyDu_-24" target="_QEluNP4us-ovRGYHnpS-1" edge="1">
<mxGeometry width="50" height="50" relative="1" as="geometry">
<mxPoint x="730" y="470" as="sourcePoint"/>
<mxPoint x="800" y="600" as="targetPoint"/>
<Array as="points">
<mxPoint x="800" y="478"/>
<mxPoint x="800" y="310"/>
</Array>
</mxGeometry>
</mxCell>
<mxCell id="ontQ0EL1ywzfDc0BTjrJ-18" value="" style="verticalLabelPosition=bottom;verticalAlign=top;html=1;shadow=0;dashed=0;strokeWidth=1;shape=mxgraph.android.phone2;strokeColor=#c0c0c0;" parent="1" vertex="1">
<mxGeometry x="2840" y="218.5" width="370" height="700" as="geometry"/>
</mxCell>
<mxCell id="ontQ0EL1ywzfDc0BTjrJ-19" value="" style="rounded=1;whiteSpace=wrap;html=1;" parent="1" vertex="1">
<mxGeometry x="2860" y="486.5" width="100" height="80" as="geometry"/>
</mxCell>
<mxCell id="ontQ0EL1ywzfDc0BTjrJ-20" value="Список (фильтрация):<div>1. Рядом с вами</div><div>2. Срочно</div><div>3. По типу животного</div><div>4. По цене</div><div>5. По рейтингу (&gt;4.0)</div>" style="rounded=1;whiteSpace=wrap;html=1;arcSize=0;" parent="1" vertex="1">
<mxGeometry x="2570" y="338.5" width="230" height="110" as="geometry"/>
</mxCell>
<mxCell id="ontQ0EL1ywzfDc0BTjrJ-21" value="" style="rounded=1;whiteSpace=wrap;html=1;" parent="1" vertex="1">
<mxGeometry x="2860" y="296.5" width="330" height="40" as="geometry"/>
</mxCell>
<mxCell id="ontQ0EL1ywzfDc0BTjrJ-22" value="" style="rounded=1;whiteSpace=wrap;html=1;" parent="1" vertex="1">
<mxGeometry x="2860" y="356.5" width="100" height="40" as="geometry"/>
</mxCell>
<mxCell id="ontQ0EL1ywzfDc0BTjrJ-23" value="" style="rounded=1;whiteSpace=wrap;html=1;" parent="1" vertex="1">
<mxGeometry x="2975" y="356.5" width="100" height="40" as="geometry"/>
</mxCell>
<mxCell id="ontQ0EL1ywzfDc0BTjrJ-24" value="" style="rounded=1;whiteSpace=wrap;html=1;" parent="1" vertex="1">
<mxGeometry x="3090" y="356.5" width="100" height="40" as="geometry"/>
</mxCell>
<mxCell id="ontQ0EL1ywzfDc0BTjrJ-25" value="" style="rounded=1;whiteSpace=wrap;html=1;" parent="1" vertex="1">
<mxGeometry x="2860" y="406.5" width="100" height="40" as="geometry"/>
</mxCell>
<mxCell id="ontQ0EL1ywzfDc0BTjrJ-26" value="" style="rounded=1;whiteSpace=wrap;html=1;" parent="1" vertex="1">
<mxGeometry x="2975" y="406.5" width="100" height="40" as="geometry"/>
</mxCell>
<mxCell id="ontQ0EL1ywzfDc0BTjrJ-27" value="" style="rounded=1;whiteSpace=wrap;html=1;" parent="1" vertex="1">
<mxGeometry x="3090" y="406.5" width="100" height="40" as="geometry"/>
</mxCell>
<mxCell id="ontQ0EL1ywzfDc0BTjrJ-28" value="" style="endArrow=none;html=1;rounded=0;" parent="1" edge="1">
<mxGeometry width="50" height="50" relative="1" as="geometry">
<mxPoint x="2860" y="466.5" as="sourcePoint"/>
<mxPoint x="3190" y="466.5" as="targetPoint"/>
</mxGeometry>
</mxCell>
<mxCell id="ontQ0EL1ywzfDc0BTjrJ-29" value="" style="rounded=1;whiteSpace=wrap;html=1;" parent="1" vertex="1">
<mxGeometry x="2975" y="486.5" width="100" height="80" as="geometry"/>
</mxCell>
<mxCell id="ontQ0EL1ywzfDc0BTjrJ-30" value="" style="rounded=1;whiteSpace=wrap;html=1;" parent="1" vertex="1">
<mxGeometry x="3090" y="486.5" width="100" height="80" as="geometry"/>
</mxCell>
<mxCell id="ontQ0EL1ywzfDc0BTjrJ-31" value="" style="rounded=1;whiteSpace=wrap;html=1;" parent="1" vertex="1">
<mxGeometry x="2860" y="576.5" width="100" height="80" as="geometry"/>
</mxCell>
<mxCell id="ontQ0EL1ywzfDc0BTjrJ-32" value="" style="rounded=1;whiteSpace=wrap;html=1;" parent="1" vertex="1">
<mxGeometry x="2975" y="576.5" width="100" height="80" as="geometry"/>
</mxCell>
<mxCell id="ontQ0EL1ywzfDc0BTjrJ-33" value="" style="rounded=1;whiteSpace=wrap;html=1;" parent="1" vertex="1">
<mxGeometry x="3090" y="576.5" width="100" height="80" as="geometry"/>
</mxCell>
<mxCell id="ontQ0EL1ywzfDc0BTjrJ-34" value="" style="rounded=1;whiteSpace=wrap;html=1;" parent="1" vertex="1">
<mxGeometry x="2860" y="666.5" width="100" height="80" as="geometry"/>
</mxCell>
<mxCell id="ontQ0EL1ywzfDc0BTjrJ-35" value="" style="rounded=1;whiteSpace=wrap;html=1;" parent="1" vertex="1">
<mxGeometry x="2975" y="666.5" width="100" height="80" as="geometry"/>
</mxCell>
<mxCell id="ontQ0EL1ywzfDc0BTjrJ-36" value="" style="rounded=1;whiteSpace=wrap;html=1;" parent="1" vertex="1">
<mxGeometry x="3090" y="666.5" width="100" height="80" as="geometry"/>
</mxCell>
<mxCell id="ontQ0EL1ywzfDc0BTjrJ-37" value="" style="endArrow=none;html=1;rounded=0;" parent="1" edge="1">
<mxGeometry width="50" height="50" relative="1" as="geometry">
<mxPoint x="2860" y="798.5" as="sourcePoint"/>
<mxPoint x="3190" y="798.5" as="targetPoint"/>
</mxGeometry>
</mxCell>
<mxCell id="ontQ0EL1ywzfDc0BTjrJ-38" value="" style="ellipse;whiteSpace=wrap;html=1;aspect=fixed;" parent="1" vertex="1">
<mxGeometry x="2860" y="807.5" width="40" height="40" as="geometry"/>
</mxCell>
<mxCell id="ontQ0EL1ywzfDc0BTjrJ-39" value="" style="ellipse;whiteSpace=wrap;html=1;aspect=fixed;" parent="1" vertex="1">
<mxGeometry x="3150" y="807.5" width="40" height="40" as="geometry"/>
</mxCell>
<mxCell id="ontQ0EL1ywzfDc0BTjrJ-40" value="" style="sketch=0;pointerEvents=1;shadow=0;dashed=0;html=1;strokeColor=default;labelPosition=center;verticalLabelPosition=bottom;verticalAlign=top;outlineConnect=0;align=center;shape=mxgraph.office.concepts.home;fillColor=none;" parent="1" vertex="1">
<mxGeometry x="2867.5" y="815" width="25" height="25" as="geometry"/>
</mxCell>
<mxCell id="ontQ0EL1ywzfDc0BTjrJ-41" value="" style="html=1;dashed=0;aspect=fixed;verticalLabelPosition=bottom;verticalAlign=top;align=center;shape=mxgraph.gmdl.heart;strokeColor=default;fillColor=none;shadow=0;sketch=0;" parent="1" vertex="1">
<mxGeometry x="3077.7799999999997" y="815" width="32.22" height="29" as="geometry"/>
</mxCell>
<mxCell id="ontQ0EL1ywzfDc0BTjrJ-42" value="" style="sketch=0;pointerEvents=1;shadow=0;dashed=0;html=1;strokeColor=default;fillColor=none;labelPosition=center;verticalLabelPosition=bottom;verticalAlign=top;outlineConnect=0;align=center;shape=mxgraph.office.concepts.search;" parent="1" vertex="1">
<mxGeometry x="3150" y="301.5" width="30" height="30" as="geometry"/>
</mxCell>
<mxCell id="ontQ0EL1ywzfDc0BTjrJ-43" value="" style="ellipse;whiteSpace=wrap;html=1;aspect=fixed;" parent="1" vertex="1">
<mxGeometry x="2951" y="808.5" width="40" height="40" as="geometry"/>
</mxCell>
<mxCell id="ontQ0EL1ywzfDc0BTjrJ-44" value="" style="shape=image;html=1;verticalAlign=top;verticalLabelPosition=bottom;labelBackgroundColor=#ffffff;imageAspect=0;aspect=fixed;image=https://cdn0.iconfinder.com/data/icons/phosphor-thin-vol-2/256/dog-thin-128.png" parent="1" vertex="1">
<mxGeometry x="2952" y="810.5" width="38" height="38" as="geometry"/>
</mxCell>
<mxCell id="ontQ0EL1ywzfDc0BTjrJ-45" value="" style="ellipse;whiteSpace=wrap;html=1;aspect=fixed;fillColor=none;" parent="1" vertex="1">
<mxGeometry x="3073.8900000000003" y="807" width="40" height="40" as="geometry"/>
</mxCell>
<mxCell id="ontQ0EL1ywzfDc0BTjrJ-46" value="" style="shape=actor;whiteSpace=wrap;html=1;" parent="1" vertex="1">
<mxGeometry x="3157.5" y="814" width="25" height="26" as="geometry"/>
</mxCell>
<mxCell id="ontQ0EL1ywzfDc0BTjrJ-47" value="карточка опекуна" style="text;html=1;align=center;verticalAlign=middle;whiteSpace=wrap;rounded=0;" parent="1" vertex="1">
<mxGeometry x="2878.89" y="511.5" width="60" height="30" as="geometry"/>
</mxCell>
<mxCell id="ontQ0EL1ywzfDc0BTjrJ-48" value="<h1 style="margin-top: 0px;"><span style="background-color: initial;">Лента опекунов</span></h1><h1 style="margin-top: 0px;"><span style="font-size: 14px; background-color: initial; font-weight: normal;">Данный блок будет виден после входа в систему, если </span><span style="font-size: 14px; background-color: initial;">роль</span><span style="font-size: 14px; background-color: initial;"> </span><span style="font-size: 14px; background-color: initial; font-weight: normal;">пользователя </span><span style="font-size: 14px; background-color: initial;">"Владелец животного"</span></h1>" style="text;html=1;whiteSpace=wrap;overflow=hidden;rounded=0;" parent="1" vertex="1">
<mxGeometry x="2560" y="60" width="350" height="120" as="geometry"/>
</mxCell>
<mxCell id="ontQ0EL1ywzfDc0BTjrJ-49" value="карточка опекуна" style="text;html=1;align=center;verticalAlign=middle;whiteSpace=wrap;rounded=0;" parent="1" vertex="1">
<mxGeometry x="2995" y="511.5" width="60" height="30" as="geometry"/>
</mxCell>
<mxCell id="ontQ0EL1ywzfDc0BTjrJ-50" value="карточка опекуна" style="text;html=1;align=center;verticalAlign=middle;whiteSpace=wrap;rounded=0;" parent="1" vertex="1">
<mxGeometry x="2995" y="600.5" width="60" height="30" as="geometry"/>
</mxCell>
<mxCell id="ontQ0EL1ywzfDc0BTjrJ-51" value="карточка опекуна" style="text;html=1;align=center;verticalAlign=middle;whiteSpace=wrap;rounded=0;" parent="1" vertex="1">
<mxGeometry x="2880" y="600.5" width="60" height="30" as="geometry"/>
</mxCell>
<mxCell id="ontQ0EL1ywzfDc0BTjrJ-52" value="карточка опекуна" style="text;html=1;align=center;verticalAlign=middle;whiteSpace=wrap;rounded=0;" parent="1" vertex="1">
<mxGeometry x="3110" y="511.5" width="60" height="30" as="geometry"/>
</mxCell>
<mxCell id="ontQ0EL1ywzfDc0BTjrJ-53" value="карточка опекуна" style="text;html=1;align=center;verticalAlign=middle;whiteSpace=wrap;rounded=0;" parent="1" vertex="1">
<mxGeometry x="3110" y="600.5" width="60" height="30" as="geometry"/>
</mxCell>
<mxCell id="ontQ0EL1ywzfDc0BTjrJ-54" value="карточка опекуна" style="text;html=1;align=center;verticalAlign=middle;whiteSpace=wrap;rounded=0;" parent="1" vertex="1">
<mxGeometry x="2880" y="691.5" width="60" height="30" as="geometry"/>
</mxCell>
<mxCell id="ontQ0EL1ywzfDc0BTjrJ-55" value="карточка опекуна" style="text;html=1;align=center;verticalAlign=middle;whiteSpace=wrap;rounded=0;" parent="1" vertex="1">
<mxGeometry x="2995" y="691.5" width="60" height="30" as="geometry"/>
</mxCell>
<mxCell id="ontQ0EL1ywzfDc0BTjrJ-56" value="карточка опекуна" style="text;html=1;align=center;verticalAlign=middle;whiteSpace=wrap;rounded=0;" parent="1" vertex="1">
<mxGeometry x="3110" y="691.5" width="60" height="30" as="geometry"/>
</mxCell>
<mxCell id="ontQ0EL1ywzfDc0BTjrJ-57" value="" style="endArrow=classic;html=1;rounded=0;entryX=0.5;entryY=1;entryDx=0;entryDy=0;exitX=0.5;exitY=0;exitDx=0;exitDy=0;" parent="1" source="ontQ0EL1ywzfDc0BTjrJ-58" edge="1">
<mxGeometry width="50" height="50" relative="1" as="geometry">
<mxPoint x="2880" y="961.5" as="sourcePoint"/>
<mxPoint x="2880" y="860.5" as="targetPoint"/>
<Array as="points">
<mxPoint x="2795" y="911.5"/>
<mxPoint x="2880" y="911.5"/>
</Array>
</mxGeometry>
</mxCell>
<mxCell id="ontQ0EL1ywzfDc0BTjrJ-58" value="При нажатии открывается <b>"Лента опекунов"</b>" style="text;html=1;align=center;verticalAlign=middle;whiteSpace=wrap;rounded=0;strokeColor=default;" parent="1" vertex="1">
<mxGeometry x="2750" y="971.5" width="90" height="70" as="geometry"/>
</mxCell>
<mxCell id="ontQ0EL1ywzfDc0BTjrJ-59" style="edgeStyle=orthogonalEdgeStyle;rounded=0;orthogonalLoop=1;jettySize=auto;html=1;entryX=0.5;entryY=1;entryDx=0;entryDy=0;" parent="1" source="ontQ0EL1ywzfDc0BTjrJ-60" edge="1">
<mxGeometry relative="1" as="geometry">
<mxPoint x="2974" y="971.5" as="sourcePoint"/>
<mxPoint x="2974" y="860.5" as="targetPoint"/>
<Array as="points">
<mxPoint x="2974" y="941.5"/>
<mxPoint x="2974" y="941.5"/>
</Array>
</mxGeometry>
</mxCell>
<mxCell id="ontQ0EL1ywzfDc0BTjrJ-60" value="При нажатии открывается<div><b>"Отчет о животном", </b>если ваш питомец на передержке. Иначе пустая страница</div>" style="text;html=1;align=center;verticalAlign=middle;whiteSpace=wrap;rounded=0;strokeColor=default;" parent="1" vertex="1">
<mxGeometry x="2867.5" y="981.5" width="135" height="90" as="geometry"/>
</mxCell>
<mxCell id="ontQ0EL1ywzfDc0BTjrJ-61" style="edgeStyle=orthogonalEdgeStyle;rounded=0;orthogonalLoop=1;jettySize=auto;html=1;" parent="1" source="ontQ0EL1ywzfDc0BTjrJ-62" edge="1">
<mxGeometry relative="1" as="geometry">
<mxPoint x="3090" y="859.5" as="targetPoint"/>
</mxGeometry>
</mxCell>
<mxCell id="ontQ0EL1ywzfDc0BTjrJ-62" value="При нажатии открывается <b>"Бронирование"</b>, если есть забронированные опекуны. Иначе пустая страница" style="text;html=1;align=center;verticalAlign=middle;whiteSpace=wrap;rounded=0;strokeColor=default;" parent="1" vertex="1">
<mxGeometry x="3030" y="981.5" width="120" height="110" as="geometry"/>
</mxCell>
<mxCell id="ontQ0EL1ywzfDc0BTjrJ-63" style="edgeStyle=orthogonalEdgeStyle;rounded=0;orthogonalLoop=1;jettySize=auto;html=1;entryX=0.5;entryY=1;entryDx=0;entryDy=0;" parent="1" source="ontQ0EL1ywzfDc0BTjrJ-64" edge="1">
<mxGeometry relative="1" as="geometry">
<mxPoint x="3170" y="860.5" as="targetPoint"/>
</mxGeometry>
</mxCell>
<mxCell id="ontQ0EL1ywzfDc0BTjrJ-64" value="При нажатии открывается <b>"Информация о вашем аккаунте"</b>" style="text;html=1;align=center;verticalAlign=middle;whiteSpace=wrap;rounded=0;strokeColor=default;" parent="1" vertex="1">
<mxGeometry x="3170" y="981.5" width="107.5" height="80" as="geometry"/>
</mxCell>
<mxCell id="ontQ0EL1ywzfDc0BTjrJ-65" style="edgeStyle=orthogonalEdgeStyle;rounded=0;orthogonalLoop=1;jettySize=auto;html=1;entryX=-0.006;entryY=0.251;entryDx=0;entryDy=0;entryPerimeter=0;" parent="1" source="ontQ0EL1ywzfDc0BTjrJ-20" target="ontQ0EL1ywzfDc0BTjrJ-18" edge="1">
<mxGeometry relative="1" as="geometry">
<Array as="points">
<mxPoint x="2820" y="393.5"/>
</Array>
</mxGeometry>
</mxCell>
<mxCell id="ontQ0EL1ywzfDc0BTjrJ-67" style="edgeStyle=orthogonalEdgeStyle;rounded=0;orthogonalLoop=1;jettySize=auto;html=1;entryX=-0.005;entryY=0.169;entryDx=0;entryDy=0;entryPerimeter=0;exitX=1.001;exitY=0.464;exitDx=0;exitDy=0;exitPerimeter=0;strokeColor=#FF3333;strokeWidth=2;" parent="1" source="ontQ0EL1ywzfDc0BTjrJ-30" target="ontQ0EL1ywzfDc0BTjrJ-6" edge="1">
<mxGeometry relative="1" as="geometry">
<Array as="points">
<mxPoint x="3190" y="526"/>
<mxPoint x="3350" y="526"/>
<mxPoint x="3350" y="316"/>
</Array>
</mxGeometry>
</mxCell>
<mxCell id="ontQ0EL1ywzfDc0BTjrJ-80" value="" style="verticalLabelPosition=bottom;verticalAlign=top;html=1;shadow=0;dashed=0;strokeWidth=1;shape=mxgraph.android.phone2;strokeColor=#c0c0c0;" parent="1" vertex="1">
<mxGeometry x="2016" y="207" width="370" height="700" as="geometry"/>
</mxCell>
<mxCell id="ontQ0EL1ywzfDc0BTjrJ-89" value="<h1 style="margin-top: 0px;"><span style="background-color: initial;">Бронирование</span></h1><h1 style="margin-top: 0px;"><span style="background-color: initial; font-size: 14px; font-weight: normal;">Данный блок будет виден после нажатия кнопки </span><span style="background-color: initial; font-size: 14px;">"Забронировать опекуна / Забронировать передержку"</span><span style="background-color: initial; font-size: 14px; font-weight: normal;">&nbsp;в разделе </span><span style="background-color: initial; font-size: 14px;">"Бронирование"</span></h1>" style="text;html=1;whiteSpace=wrap;overflow=hidden;rounded=0;" parent="1" vertex="1">
<mxGeometry x="1749" y="49" width="580" height="120" as="geometry"/>
</mxCell>
<mxCell id="ontQ0EL1ywzfDc0BTjrJ-91" value="" style="rounded=1;whiteSpace=wrap;html=1;" parent="1" vertex="1">
<mxGeometry x="2044" y="358.75" width="315" height="60" as="geometry"/>
</mxCell>
<mxCell id="ontQ0EL1ywzfDc0BTjrJ-92" value="" style="ellipse;whiteSpace=wrap;html=1;aspect=fixed;" parent="1" vertex="1">
<mxGeometry x="2059" y="368.75" width="40" height="40" as="geometry"/>
</mxCell>
<mxCell id="ontQ0EL1ywzfDc0BTjrJ-94" value="<b><font style="font-size: 13px;">дата</font></b>" style="text;html=1;align=left;verticalAlign=middle;whiteSpace=wrap;rounded=0;" parent="1" vertex="1">
<mxGeometry x="2114" y="362.75" width="60" height="30" as="geometry"/>
</mxCell>
<mxCell id="ontQ0EL1ywzfDc0BTjrJ-95" value="информация о животном и передержки" style="text;html=1;align=left;verticalAlign=middle;whiteSpace=wrap;rounded=0;" parent="1" vertex="1">
<mxGeometry x="2114" y="382.75" width="245" height="30" as="geometry"/>
</mxCell>
<mxCell id="ontQ0EL1ywzfDc0BTjrJ-96" value="" style="rounded=1;whiteSpace=wrap;html=1;" parent="1" vertex="1">
<mxGeometry x="2043.5" y="428.75" width="315" height="60" as="geometry"/>
</mxCell>
<mxCell id="ontQ0EL1ywzfDc0BTjrJ-97" value="" style="ellipse;whiteSpace=wrap;html=1;aspect=fixed;" parent="1" vertex="1">
<mxGeometry x="2058.5" y="438.75" width="40" height="40" as="geometry"/>
</mxCell>
<mxCell id="ontQ0EL1ywzfDc0BTjrJ-98" value="<b><font style="font-size: 13px;">дата</font></b>" style="text;html=1;align=left;verticalAlign=middle;whiteSpace=wrap;rounded=0;" parent="1" vertex="1">
<mxGeometry x="2113.5" y="432.75" width="60" height="30" as="geometry"/>
</mxCell>
<mxCell id="ontQ0EL1ywzfDc0BTjrJ-99" value="информация о животном и передержки" style="text;html=1;align=left;verticalAlign=middle;whiteSpace=wrap;rounded=0;" parent="1" vertex="1">
<mxGeometry x="2113.5" y="452.75" width="245" height="30" as="geometry"/>
</mxCell>
<mxCell id="ontQ0EL1ywzfDc0BTjrJ-100" value="" style="rounded=1;whiteSpace=wrap;html=1;" parent="1" vertex="1">
<mxGeometry x="2043.5" y="494.75" width="315" height="60" as="geometry"/>
</mxCell>
<mxCell id="ontQ0EL1ywzfDc0BTjrJ-101" value="" style="ellipse;whiteSpace=wrap;html=1;aspect=fixed;" parent="1" vertex="1">
<mxGeometry x="2058.5" y="504.75" width="40" height="40" as="geometry"/>
</mxCell>
<mxCell id="ontQ0EL1ywzfDc0BTjrJ-102" value="<b><font style="font-size: 13px;">дата</font></b>" style="text;html=1;align=left;verticalAlign=middle;whiteSpace=wrap;rounded=0;" parent="1" vertex="1">
<mxGeometry x="2113.5" y="498.75" width="57" height="30" as="geometry"/>
</mxCell>
<mxCell id="ontQ0EL1ywzfDc0BTjrJ-103" value="информация о животном и передержки" style="text;html=1;align=left;verticalAlign=middle;whiteSpace=wrap;rounded=0;" parent="1" vertex="1">
<mxGeometry x="2113.5" y="518.75" width="245" height="30" as="geometry"/>
</mxCell>
<mxCell id="ontQ0EL1ywzfDc0BTjrJ-104" value="" style="rounded=1;whiteSpace=wrap;html=1;" parent="1" vertex="1">
<mxGeometry x="2043.5" y="559.25" width="315" height="60" as="geometry"/>
</mxCell>
<mxCell id="ontQ0EL1ywzfDc0BTjrJ-105" value="" style="ellipse;whiteSpace=wrap;html=1;aspect=fixed;" parent="1" vertex="1">
<mxGeometry x="2058.5" y="569.25" width="40" height="40" as="geometry"/>
</mxCell>
<mxCell id="ontQ0EL1ywzfDc0BTjrJ-106" value="<b><font style="font-size: 13px;">дата</font></b>" style="text;html=1;align=left;verticalAlign=middle;whiteSpace=wrap;rounded=0;" parent="1" vertex="1">
<mxGeometry x="2113.5" y="563.25" width="60" height="30" as="geometry"/>
</mxCell>
<mxCell id="ontQ0EL1ywzfDc0BTjrJ-107" value="информация о животном и передержки" style="text;html=1;align=left;verticalAlign=middle;whiteSpace=wrap;rounded=0;" parent="1" vertex="1">
<mxGeometry x="2113.5" y="583.25" width="245" height="30" as="geometry"/>
</mxCell>
<mxCell id="ontQ0EL1ywzfDc0BTjrJ-108" value="" style="rounded=1;whiteSpace=wrap;html=1;" parent="1" vertex="1">
<mxGeometry x="2043" y="629.25" width="315" height="60" as="geometry"/>
</mxCell>
<mxCell id="ontQ0EL1ywzfDc0BTjrJ-109" value="" style="ellipse;whiteSpace=wrap;html=1;aspect=fixed;" parent="1" vertex="1">
<mxGeometry x="2058" y="639.25" width="40" height="40" as="geometry"/>
</mxCell>
<mxCell id="ontQ0EL1ywzfDc0BTjrJ-110" value="<b><font style="font-size: 13px;">дата</font></b>" style="text;html=1;align=left;verticalAlign=middle;whiteSpace=wrap;rounded=0;" parent="1" vertex="1">
<mxGeometry x="2113" y="633.25" width="60" height="30" as="geometry"/>
</mxCell>
<mxCell id="ontQ0EL1ywzfDc0BTjrJ-111" value="информация о животном и передержки" style="text;html=1;align=left;verticalAlign=middle;whiteSpace=wrap;rounded=0;" parent="1" vertex="1">
<mxGeometry x="2113" y="653.25" width="245" height="30" as="geometry"/>
</mxCell>
<mxCell id="ontQ0EL1ywzfDc0BTjrJ-112" value="" style="rounded=1;whiteSpace=wrap;html=1;" parent="1" vertex="1">
<mxGeometry x="2043" y="695.25" width="315" height="60" as="geometry"/>
</mxCell>
<mxCell id="ontQ0EL1ywzfDc0BTjrJ-113" value="" style="ellipse;whiteSpace=wrap;html=1;aspect=fixed;" parent="1" vertex="1">
<mxGeometry x="2058" y="705.25" width="40" height="40" as="geometry"/>
</mxCell>
<mxCell id="ontQ0EL1ywzfDc0BTjrJ-114" value="<b><font style="font-size: 13px;">дата</font></b>" style="text;html=1;align=left;verticalAlign=middle;whiteSpace=wrap;rounded=0;" parent="1" vertex="1">
<mxGeometry x="2113" y="699.25" width="57" height="30" as="geometry"/>
</mxCell>
<mxCell id="ontQ0EL1ywzfDc0BTjrJ-115" value="информация о животном и передержки" style="text;html=1;align=left;verticalAlign=middle;whiteSpace=wrap;rounded=0;" parent="1" vertex="1">
<mxGeometry x="2113" y="719.25" width="245" height="30" as="geometry"/>
</mxCell>
<mxCell id="ontQ0EL1ywzfDc0BTjrJ-116" value="" style="endArrow=none;html=1;rounded=0;" parent="1" edge="1">
<mxGeometry width="50" height="50" relative="1" as="geometry">
<mxPoint x="2036.5" y="781" as="sourcePoint"/>
<mxPoint x="2366.5" y="781" as="targetPoint"/>
</mxGeometry>
</mxCell>
<mxCell id="ontQ0EL1ywzfDc0BTjrJ-117" value="" style="ellipse;whiteSpace=wrap;html=1;aspect=fixed;" parent="1" vertex="1">
<mxGeometry x="2036.5" y="790" width="40" height="40" as="geometry"/>
</mxCell>
<mxCell id="ontQ0EL1ywzfDc0BTjrJ-118" value="" style="ellipse;whiteSpace=wrap;html=1;aspect=fixed;" parent="1" vertex="1">
<mxGeometry x="2326.5" y="790" width="40" height="40" as="geometry"/>
</mxCell>
<mxCell id="ontQ0EL1ywzfDc0BTjrJ-119" value="" style="sketch=0;pointerEvents=1;shadow=0;dashed=0;html=1;strokeColor=default;labelPosition=center;verticalLabelPosition=bottom;verticalAlign=top;outlineConnect=0;align=center;shape=mxgraph.office.concepts.home;fillColor=none;" parent="1" vertex="1">
<mxGeometry x="2044" y="797.5" width="25" height="25" as="geometry"/>
</mxCell>
<mxCell id="ontQ0EL1ywzfDc0BTjrJ-120" value="" style="html=1;dashed=0;aspect=fixed;verticalLabelPosition=bottom;verticalAlign=top;align=center;shape=mxgraph.gmdl.heart;strokeColor=default;fillColor=none;shadow=0;sketch=0;" parent="1" vertex="1">
<mxGeometry x="2254.2799999999997" y="797.5" width="32.22" height="29" as="geometry"/>
</mxCell>
<mxCell id="ontQ0EL1ywzfDc0BTjrJ-121" value="" style="ellipse;whiteSpace=wrap;html=1;aspect=fixed;" parent="1" vertex="1">
<mxGeometry x="2127.5" y="791" width="40" height="40" as="geometry"/>
</mxCell>
<mxCell id="ontQ0EL1ywzfDc0BTjrJ-122" value="" style="shape=image;html=1;verticalAlign=top;verticalLabelPosition=bottom;labelBackgroundColor=#ffffff;imageAspect=0;aspect=fixed;image=https://cdn0.iconfinder.com/data/icons/phosphor-thin-vol-2/256/dog-thin-128.png" parent="1" vertex="1">
<mxGeometry x="2128.5" y="793" width="38" height="38" as="geometry"/>
</mxCell>
<mxCell id="ontQ0EL1ywzfDc0BTjrJ-123" value="" style="ellipse;whiteSpace=wrap;html=1;aspect=fixed;fillColor=none;" parent="1" vertex="1">
<mxGeometry x="2250.3900000000003" y="789.5" width="40" height="40" as="geometry"/>
</mxCell>
<mxCell id="ontQ0EL1ywzfDc0BTjrJ-124" value="" style="shape=actor;whiteSpace=wrap;html=1;" parent="1" vertex="1">
<mxGeometry x="2334" y="796.5" width="25" height="26" as="geometry"/>
</mxCell>
<mxCell id="ontQ0EL1ywzfDc0BTjrJ-125" value="" style="rounded=1;whiteSpace=wrap;html=1;" parent="1" vertex="1">
<mxGeometry x="2036.5" y="289" width="330" height="40" as="geometry"/>
</mxCell>
<mxCell id="ontQ0EL1ywzfDc0BTjrJ-126" value="" style="sketch=0;pointerEvents=1;shadow=0;dashed=0;html=1;strokeColor=default;fillColor=none;labelPosition=center;verticalLabelPosition=bottom;verticalAlign=top;outlineConnect=0;align=center;shape=mxgraph.office.concepts.search;" parent="1" vertex="1">
<mxGeometry x="2326.5" y="294" width="30" height="30" as="geometry"/>
</mxCell>
<mxCell id="ontQ0EL1ywzfDc0BTjrJ-130" value="" style="endArrow=classic;html=1;rounded=0;entryX=0.015;entryY=0.645;entryDx=0;entryDy=0;entryPerimeter=0;strokeColor=#FF3333;strokeWidth=2;" parent="1" target="ontQ0EL1ywzfDc0BTjrJ-80" edge="1">
<mxGeometry width="50" height="50" relative="1" as="geometry">
<mxPoint x="600" y="760" as="sourcePoint"/>
<mxPoint x="1370" y="680" as="targetPoint"/>
<Array as="points">
<mxPoint x="600" y="720"/>
<mxPoint x="830" y="720"/>
<mxPoint x="830" y="1010"/>
<mxPoint x="1920" y="1010"/>
<mxPoint x="1920" y="660"/>
</Array>
</mxGeometry>
</mxCell>
<mxCell id="ontQ0EL1ywzfDc0BTjrJ-132" value="" style="endArrow=classic;html=1;rounded=0;entryX=1.003;entryY=0.929;entryDx=0;entryDy=0;entryPerimeter=0;strokeColor=#009900;strokeWidth=2;" parent="1" target="LzP6a3P3L5XZZJSvpoCF-1" edge="1">
<mxGeometry width="50" height="50" relative="1" as="geometry">
<mxPoint x="2057" y="830" as="sourcePoint"/>
<mxPoint x="1650" y="660" as="targetPoint"/>
<Array as="points">
<mxPoint x="2057" y="960"/>
<mxPoint x="1360" y="960"/>
<mxPoint x="880" y="960"/>
<mxPoint x="880" y="820"/>
</Array>
</mxGeometry>
</mxCell>
<mxCell id="ontQ0EL1ywzfDc0BTjrJ-133" value="" style="endArrow=classic;html=1;rounded=0;exitX=0.5;exitY=0;exitDx=0;exitDy=0;entryX=1.002;entryY=0.82;entryDx=0;entryDy=0;entryPerimeter=0;strokeWidth=2;strokeColor=#FF3333;" parent="1" source="ontQ0EL1ywzfDc0BTjrJ-45" target="ontQ0EL1ywzfDc0BTjrJ-80" edge="1">
<mxGeometry width="50" height="50" relative="1" as="geometry">
<mxPoint x="2710" y="710" as="sourcePoint"/>
<mxPoint x="2760" y="660" as="targetPoint"/>
<Array as="points">
<mxPoint x="3094" y="780"/>
<mxPoint x="2690" y="780"/>
</Array>
</mxGeometry>
</mxCell>
<mxCell id="ontQ0EL1ywzfDc0BTjrJ-134" value="" style="endArrow=classic;html=1;rounded=0;entryX=0.002;entryY=0.843;entryDx=0;entryDy=0;entryPerimeter=0;strokeWidth=2;strokeColor=#009900;fillColor=#d5e8d4;" parent="1" edge="1">
<mxGeometry width="50" height="50" relative="1" as="geometry">
<mxPoint x="2057" y="830" as="sourcePoint"/>
<mxPoint x="2837.74" y="808.6000000000001" as="targetPoint"/>
<Array as="points">
<mxPoint x="2057" y="890"/>
<mxPoint x="2057" y="960"/>
<mxPoint x="2617" y="960"/>
<mxPoint x="2617" y="809"/>
</Array>
</mxGeometry>
</mxCell>
<mxCell id="ontQ0EL1ywzfDc0BTjrJ-137" value="<b>/application/pet</b>" style="text;html=1;align=left;verticalAlign=middle;whiteSpace=wrap;rounded=0;" parent="1" vertex="1">
<mxGeometry x="70" y="170" width="270" height="30" as="geometry"/>
</mxCell>
<mxCell id="ontQ0EL1ywzfDc0BTjrJ-138" value="<b>/application/pet/card</b>" style="text;html=1;align=left;verticalAlign=middle;whiteSpace=wrap;rounded=0;" parent="1" vertex="1">
<mxGeometry x="870" y="170" width="230" height="30" as="geometry"/>
</mxCell>
<mxCell id="ontQ0EL1ywzfDc0BTjrJ-139" value="<b style="">/application/booking</b>" style="text;html=1;align=left;verticalAlign=middle;whiteSpace=wrap;rounded=0;" parent="1" vertex="1">
<mxGeometry x="1749" y="170" width="161" height="30" as="geometry"/>
</mxCell>
<mxCell id="7dWm4lEtM0vnwswyHQPo-1" value="<b>/application/pet_sitter</b>" style="text;html=1;align=left;verticalAlign=middle;whiteSpace=wrap;rounded=0;" vertex="1" parent="1">
<mxGeometry x="2560" y="188.5" width="270" height="30" as="geometry"/>
</mxCell>
<mxCell id="7dWm4lEtM0vnwswyHQPo-2" value="<b>/application/pet_sitter/card</b>" style="text;html=1;align=left;verticalAlign=middle;whiteSpace=wrap;rounded=0;" vertex="1" parent="1">
<mxGeometry x="3380" y="168" width="270" height="30" as="geometry"/>
</mxCell>
</root>
</mxGraphModel>
</diagram>
</mxfile>